<svg width="16" height="16" viewBox="0 0 16 16" fill="none" xmlns="http://www.w3.org/2000/svg">
<path d="M0.8 0C0.358176 0 0 0.358176 0 0.8C0 1.24182 0.358176 1.6 0.8 1.6H1.6C2.04182 1.6 2.4 1.95818 2.4 2.4V9.6C2.4 10.4837 3.11634 11.2 4 11.2H12.3779C13.0994 11.2 13.7317 10.7171 13.9215 10.021L15.1732 5.43148C15.5896 3.90474 14.4403 2.4 12.8578 2.4H4C4 1.07452 2.92548 0 1.6 0H0.8Z" fill="#262728"/>
<path d="M4.4 16C5.50457 16 6.4 15.1046 6.4 14C6.4 12.8954 5.50457 12 4.4 12C3.29543 12 2.4 12.8954 2.4 14C2.4 15.1046 3.29543 16 4.4 16Z" fill="#262728"/>
<path d="M11.6 16C12.7046 16 13.6 15.1046 13.6 14C13.6 12.8954 12.7046 12 11.6 12C10.4954 12 9.6 12.8954 9.6 14C9.6 15.1046 10.4954 16 11.6 16Z" fill="#262728"/>
</svg>
